<svg width="217" height="74" viewBox="0 0 217 74" fill="none" xmlns="http://www.w3.org/2000/svg">
<path d="M0 14C0 6.26801 6.26801 0 14 0H203C210.732 0 217 6.26801 217 14V60C217 67.732 210.732 74 203 74H14C6.26801 74 0 67.732 0 60V14Z" fill="url(#paint0_linear_6_6)"/>
<path d="M29.6875 26.4062C32.9167 26.4062 35.6979 27.0312 38.0312 28.2812C40.3646 29.5104 42.1667 31.3021 43.4375 33.6562C44.7083 36.0104 45.3438 38.8854 45.3438 42.2812V46.9062H22.8125C22.9167 49.5938 23.7188 51.7083 25.2188 53.25C26.7396 54.7708 28.8438 55.5312 31.5312 55.5312C33.7604 55.5312 35.8021 55.3021 37.6562 54.8438C39.5104 54.3854 41.4167 53.6979 43.375 52.7812V60.1562C41.6458 61.0104 39.8333 61.6354 37.9375 62.0312C36.0625 62.4271 33.7812 62.625 31.0938 62.625C27.5938 62.625 24.4896 61.9792 21.7812 60.6875C19.0938 59.3958 16.9792 57.4271 15.4375 54.7812C13.9167 52.1354 13.1562 48.8021 13.1562 44.7812C13.1562 40.6979 13.8438 37.3021 15.2188 34.5938C16.6146 31.8646 18.5521 29.8229 21.0312 28.4688C23.5104 27.0938 26.3958 26.4062 29.6875 26.4062ZM29.75 33.1875C27.8958 33.1875 26.3542 33.7812 25.125 34.9688C23.9167 36.1562 23.2188 38.0208 23.0312 40.5625H36.4062C36.3854 39.1458 36.125 37.8854 35.625 36.7812C35.1458 35.6771 34.4167 34.8021 33.4375 34.1562C32.4792 33.5104 31.25 33.1875 29.75 33.1875Z" fill="white"/>
<path d="M64.1562 62.625C60.2604 62.625 57.0833 61.1042 54.625 58.0625C52.1875 55 50.9688 50.5104 50.9688 44.5938C50.9688 38.6146 52.2083 34.0938 54.6875 31.0312C57.1667 27.9479 60.4062 26.4062 64.4062 26.4062C66.0729 26.4062 67.5417 26.6354 68.8125 27.0938C70.0833 27.5521 71.1771 28.1667 72.0938 28.9375C73.0312 29.7083 73.8229 30.5729 74.4688 31.5312H74.7812C74.6562 30.8646 74.5 29.8854 74.3125 28.5938C74.1458 27.2812 74.0625 25.9375 74.0625 24.5625V13.375H83.625V62H76.3125L74.4688 57.4688H74.0625C73.4583 58.4271 72.6979 59.3021 71.7812 60.0938C70.8854 60.8646 69.8125 61.4792 68.5625 61.9375C67.3125 62.3958 65.8438 62.625 64.1562 62.625ZM67.5 55.0312C70.1042 55.0312 71.9375 54.2604 73 52.7188C74.0833 51.1562 74.6562 48.8125 74.7188 45.6875V44.6562C74.7188 41.2604 74.1979 38.6667 73.1562 36.875C72.1146 35.0625 70.1771 34.1562 67.3438 34.1562C65.2396 34.1562 63.5938 35.0625 62.4062 36.875C61.2188 38.6875 60.625 41.3021 60.625 44.7188C60.625 48.1354 61.2188 50.7083 62.4062 52.4375C63.6146 54.1667 65.3125 55.0312 67.5 55.0312Z" fill="white"/>
<path d="M103.125 13.375V24.6875C103.125 26 103.083 27.3021 103 28.5938C102.938 29.8854 102.854 30.8854 102.75 31.5938H103.125C104.042 30.1562 105.292 28.9375 106.875 27.9375C108.458 26.9167 110.51 26.4062 113.031 26.4062C116.948 26.4062 120.125 27.9375 122.562 31C125 34.0625 126.219 38.5521 126.219 44.4688C126.219 48.4479 125.656 51.7917 124.531 54.5C123.406 57.1875 121.833 59.2188 119.812 60.5938C117.792 61.9479 115.448 62.625 112.781 62.625C110.219 62.625 108.198 62.1667 106.719 61.25C105.24 60.3333 104.042 59.3021 103.125 58.1562H102.469L100.875 62H93.5938V13.375H103.125ZM109.969 34.0312C108.302 34.0312 106.979 34.375 106 35.0625C105.021 35.75 104.302 36.7812 103.844 38.1562C103.406 39.5312 103.167 41.2708 103.125 43.375V44.4062C103.125 47.8021 103.625 50.4062 104.625 52.2188C105.625 54.0104 107.448 54.9062 110.094 54.9062C112.052 54.9062 113.604 54 114.75 52.1875C115.917 50.375 116.5 47.7604 116.5 44.3438C116.5 40.9271 115.917 38.3542 114.75 36.625C113.583 34.8958 111.99 34.0312 109.969 34.0312Z" fill="white"/>
<path d="M165.844 44.4688C165.844 47.3854 165.448 49.9688 164.656 52.2188C163.885 54.4688 162.75 56.375 161.25 57.9375C159.771 59.4792 157.979 60.6458 155.875 61.4375C153.792 62.2292 151.438 62.625 148.812 62.625C146.354 62.625 144.094 62.2292 142.031 61.4375C139.99 60.6458 138.208 59.4792 136.688 57.9375C135.188 56.375 134.021 54.4688 133.188 52.2188C132.375 49.9688 131.969 47.3854 131.969 44.4688C131.969 40.5938 132.656 37.3125 134.031 34.625C135.406 31.9375 137.365 29.8958 139.906 28.5C142.448 27.1042 145.479 26.4062 149 26.4062C152.271 26.4062 155.167 27.1042 157.688 28.5C160.229 29.8958 162.219 31.9375 163.656 34.625C165.115 37.3125 165.844 40.5938 165.844 44.4688ZM141.688 44.4688C141.688 46.7604 141.938 48.6875 142.438 50.25C142.938 51.8125 143.719 52.9896 144.781 53.7812C145.844 54.5729 147.229 54.9688 148.938 54.9688C150.625 54.9688 151.99 54.5729 153.031 53.7812C154.094 52.9896 154.865 51.8125 155.344 50.25C155.844 48.6875 156.094 46.7604 156.094 44.4688C156.094 42.1562 155.844 40.2396 155.344 38.7188C154.865 37.1771 154.094 36.0208 153.031 35.25C151.969 34.4792 150.583 34.0938 148.875 34.0938C146.354 34.0938 144.521 34.9583 143.375 36.6875C142.25 38.4167 141.688 41.0104 141.688 44.4688Z" fill="white"/>
<path d="M180.875 44.1562L169.625 27.0625H180.438L187.219 38.1875L194.062 27.0625H204.875L193.5 44.1562L205.406 62H194.562L187.219 50.0312L179.844 62H169.031L180.875 44.1562Z" fill="white"/>
<defs>
<linearGradient id="paint0_linear_6_6" x1="-4.42662e-07" y1="96.1098" x2="206.442" y2="-7.98784" gradientUnits="userSpaceOnUse">
<stop stop-color="#6641B7"/>
<stop offset="1" stop-color="#B143A5"/>
</linearGradient>
</defs>
</svg>
