<?xml version="1.0" standalone="no"?>
<!DOCTYPE svg PUBLIC "-//W3C//DTD SVG 20010904//EN"
 "http://www.w3.org/TR/2001/REC-SVG-20010904/DTD/svg10.dtd">
<svg version="1.0" xmlns="http://www.w3.org/2000/svg"
 width="512.000000pt" height="512.000000pt" viewBox="0 0 512.000000 512.000000"
 preserveAspectRatio="xMidYMid meet">
<metadata>
Created by potrace 1.14, written by Peter Selinger 2001-2017
</metadata>
<g transform="translate(0.000000,512.000000) scale(0.100000,-0.100000)"
fill="#000000" stroke="none">
<path d="M1101 5109 c-332 -26 -577 -134 -777 -341 -165 -170 -256 -360 -302
-633 -15 -91 -17 -233 -17 -1575 0 -1342 2 -1484 17 -1575 50 -295 149 -490
343 -673 166 -158 342 -241 610 -289 79 -14 256 -17 1465 -20 1405 -5 1605 -1
1770 33 242 50 426 149 585 316 156 162 241 326 289 558 34 164 38 367 34
1760 -4 1494 -3 1445 -64 1658 -100 345 -382 626 -728 726 -212 62 -157 60
-1701 62 -775 1 -1462 -2 -1524 -7z m3319 -2444 l0 -1425 -170 0 -169 0 -20
68 c-11 37 -28 95 -37 130 -10 34 -22 62 -28 61 -6 0 -30 -25 -54 -55 -80
-101 -186 -170 -332 -216 -65 -20 -96 -23 -225 -23 -173 0 -234 13 -360 74
-227 112 -379 357 -431 696 -21 133 -14 504 11 615 71 319 219 535 439 639
113 54 175 65 351 65 154 0 164 -1 252 -32 120 -41 207 -97 288 -184 36 -39
68 -68 72 -65 3 4 0 51 -7 104 -7 58 -14 278 -17 536 l-5 437 221 0 221 0 0
-1425z m-2745 606 c162 -42 310 -136 408 -256 143 -177 197 -368 197 -697 l0
-168 -676 0 -676 0 7 -62 c31 -286 155 -453 390 -525 48 -14 91 -18 215 -17
211 1 376 34 568 113 l72 30 0 -178 0 -178 -92 -36 c-195 -74 -307 -92 -578
-92 -188 1 -226 4 -303 23 -398 99 -633 359 -702 772 -22 126 -16 442 10 555
92 410 333 660 701 730 114 21 352 14 459 -14z"/>
<path d="M3385 2937 c-210 -54 -327 -241 -357 -570 -14 -151 -1 -338 32 -457
71 -254 237 -375 486 -356 240 18 360 114 426 343 21 73 23 96 22 343 0 239
-2 273 -22 342 -53 194 -137 291 -292 339 -82 25 -228 33 -295 16z"/>
<path d="M1300 2956 c-114 -24 -199 -83 -262 -180 -41 -64 -81 -178 -93 -263
l-7 -53 458 0 457 0 -6 83 c-6 93 -39 196 -83 258 -94 136 -275 196 -464 155z"/>
</g>
</svg>
